<?xml version="1.0" ?><svg width="32px" height="32px" viewBox="0 0 32 32" xmlns="http://www.w3.org/2000/svg">
    <title/><g><path d="M4,24H9V21H2.7A1.7,1.7,0,0,1,1,19.3V13.7A1.7,1.7,0,0,1,2.7,12H9V6.5A1.5,1.5,0,0,1,10.5,5h5.38a1.49,1.49,0,0,1,1.44,1.07l.31,1L18,7l4.76-1.9L23.12,5l0-.12a1.44,1.44,0,0,1,.77-1.89l.86-.36A16,16,0,0,0,2.43,24.45,3,3,0,0,1,4,24Z" 
        style="fill: #0bf"/><path d="M29.83,23.83a4,4,0,0,1-5.66,0l5.66-5.66a4,4,0,0,1,1.1,3.54A15.92,15.92,0,0,0,28.39,5.88l2.5,10a1.57,1.57,0,0,1,0,.37,1.41,1.41,0,0,1-.78,1.27,1.43,1.43,0,0,1-2-.72L24.32,7.74,24,7.89,19.7,12.3l-.47.14L20,15v4.3A1.7,1.7,0,0,1,18.3,21H13v3h5a3,3,0,0,1,0,6H8.26a16,16,0,0,0,21.91-6.59A3.94,3.94,0,0,1,29.83,23.83Z" 
        style="fill: #0bf"/></g><circle cx="18" cy="27" r="3" style="fill: none;stroke: #000;stroke-linecap: round;stroke-linejoin: round;stroke-width: 2px"/>
        <circle cx="4" cy="27" r="3" 
        style="fill: none;stroke: #000;stroke-linecap: round;stroke-linejoin: round;stroke-width: 2px"/>
        <line style="fill: none;stroke: #000;stroke-linecap: round;stroke-linejoin: round;stroke-width: 2px" x1="18" x2="4.09" y1="30" y2="30"/>
        <line style="fill: none;stroke: #000;stroke-linecap: round;stroke-linejoin: round;stroke-width: 2px" x1="12" x2="8" y1="27" y2="27"/>
        <line style="fill: none;stroke: #000;stroke-linecap: round;stroke-linejoin: round;stroke-width: 2px" x1="18" x2="4.09" y1="24" y2="24"/>
        <line style="fill: none;stroke: #000;stroke-linecap: round;stroke-linejoin: round;stroke-width: 2px" x1="9" x2="9" y1="23" y2="22"/>
        <line style="fill: none;stroke: #000;stroke-linecap: round;stroke-linejoin: round;stroke-width: 2px" x1="13" x2="13" y1="23" y2="22"/>
        <path d="M9,12H2.7A1.7,1.7,0,0,0,1,13.7v5.6A1.7,1.7,0,0,0,2.7,21H18.3A1.7,1.7,0,0,0,20,19.3V15Z" style="fill: none;stroke: #000;stroke-linecap: round;stroke-linejoin: round;stroke-width: 2px"/>
        <path d="M20,15,17.32,6.07A1.5,1.5,0,0,0,15.88,5H10.5A1.5,1.5,0,0,0,9,6.5v5" style="fill: none;stroke: #000;stroke-linecap: round;stroke-linejoin: round;stroke-width: 2px"/>
        <path d="M4,11V9.41a1,1,0,0,0-.29-.71L3,8" 
        style="fill: none;stroke: #000;stroke-linecap: round;stroke-linejoin: round;stroke-width: 2px"/>
        <line style="fill: none;stroke: #000;stroke-linecap: round;stroke-linejoin: round;stroke-width: 2px" x1="13" x2="13" y1="6" y2="12.6"/><path d="M30.89,15.88,27.7,3.12a1.43,1.43,0,0,0-1.94-1l-1.93.8a1.43,1.43,0,0,0-.77,1.89l5.13,12a1.43,1.43,0,0,0,2,.72h0A1.41,1.41,0,0,0,30.89,15.88Z"
         style="fill: none;stroke: #000;stroke-linecap: round;stroke-linejoin: round;stroke-width: 2px"/>
         <line style="fill: none;stroke: #000;stroke-linecap: round;stroke-linejoin: round;stroke-width: 2px" x1="23.98" x2="19.7" y1="7.89" y2="12.3"/><line style="fill: none;stroke: #000;stroke-linecap: round;stroke-linejoin: round;stroke-width: 2px" x1="18" x2="22.76" y1="7" y2="5.1"/>
         <path d="M24.17,23.83a4,4,0,0,0,5.66-5.66Z" style="fill: none;stroke: #000;stroke-linecap: round;stroke-linejoin: round;stroke-width: 2px"/>
    <line style="fill: none;stroke: #000;stroke-linecap: round;stroke-linejoin: round;stroke-width: 2px" x1="24.17" x2="23.17" y1="23.83" y2="22.85"/></svg>